<svg width="416" height="416" viewBox="0 0 416 416" fill="none" xmlns="http://www.w3.org/2000/svg">
<path fill-rule="evenodd" clip-rule="evenodd" d="M7.99234 0H87.9716H128.846H408.008C412.422 0.00413838 416 3.58427 416 8V165.788V263.838V408C416 412.418 412.418 416 408 416H327.246H286.372H8.00001C3.58173 416 0 412.418 0 408V250.663V150.807V8C0 3.58428 3.57758 0.00413838 7.99234 0ZM59.4286 156.759V88.1369L356.571 259.692V328.315L59.4286 156.759ZM356.571 67.4286V131.477L231.78 59.4286H348.571C352.99 59.4286 356.571 63.0103 356.571 67.4286ZM59.4286 284.974V348.571C59.4286 352.99 63.0103 356.571 67.4286 356.571H183.438L59.4286 284.974Z" fill="#F8FAFC"/>
</svg>
